<?xml version="1.0" encoding="utf-8"?>
<!-- Generator: Adobe Illustrator 25.1.0, SVG Export Plug-In . SVG Version: 6.00 Build 0)  -->
<svg version="1.1" id="Layer_1" xmlns="http://www.w3.org/2000/svg" xmlns:xlink="http://www.w3.org/1999/xlink" x="0px" y="0px"
	 viewBox="0 0 50 50" style="enable-background:new 0 0 50 50;" xml:space="preserve">
<style type="text/css">
	.st0{fill:#FFFFFF;}
	.st1{fill:#191E4A;}
	.st2{fill:#2D54A1;}
	.st3{fill:#203265;}
	.st4{fill:#334E85;}
	.st5{fill:#344367;}
	.st6{fill:#0F1A3F;}
</style>
<g>
	<circle class="st0" cx="25" cy="25" r="24.2"/>
	<g>
		<g>
			<g>
				<path class="st1" d="M25.9,30.5v1.9v0.1h1.9v-0.1v-1.2v-3.6v-0.8h0.2h1.5c0.5,0,0.9,0,1.2-0.1c0.3-0.1,0.5-0.1,0.8-0.2
					c0.6-0.2,1-0.5,1.4-0.9c0.4-0.4,0.6-0.8,0.7-1.3c0.1-0.4,0.2-0.9,0.2-1.3c0-0.5-0.1-1-0.2-1.4c-0.1-0.3-0.3-0.6-0.5-0.9
					c-0.1-0.1-0.2-0.2-0.3-0.3c-0.3-0.3-0.6-0.5-1-0.7c-0.1,0-0.2-0.1-0.3-0.1c-0.5-0.2-1.2-0.3-1.9-0.3h-3.6h0v2.9v3.1v0.9v1V30.5z
					 M31.7,23.8c-0.1,0.2-0.2,0.3-0.3,0.5c0,0-0.1,0.1-0.1,0.1c-0.2,0.2-0.4,0.3-0.7,0.4C30.3,24.9,30,25,29.5,25c0,0-0.1,0-0.1,0
					h-1.6v-1.3v-2.5h0.5h1.2c0.4,0,0.8,0.1,1.1,0.2c0.3,0.1,0.5,0.2,0.7,0.4c0.2,0.2,0.3,0.4,0.4,0.6c0.1,0.2,0.1,0.5,0.1,0.8
					C31.8,23.3,31.8,23.6,31.7,23.8z"/>
			</g>
			<g>
				<path class="st1" d="M24.9,27.7c-0.1-0.2-0.1-0.4-0.2-0.6c-0.1-0.1-0.1-0.2-0.2-0.3c-0.2-0.3-0.5-0.6-0.8-0.8
					c-0.2-0.1-0.3-0.3-0.5-0.4c0,0-0.1,0-0.1-0.1l-0.1,0c-0.4-0.2-0.9-0.4-1.4-0.6c-0.4-0.1-0.8-0.3-1.2-0.4l-0.1,0
					c-0.1,0-0.1,0-0.2-0.1c-0.4-0.2-0.8-0.4-1-0.7c-0.2-0.2-0.3-0.4-0.3-0.7c0-0.1,0-0.2,0-0.4c0-0.3,0.1-0.6,0.2-0.8
					c0.1-0.2,0.3-0.5,0.4-0.6c0.2-0.2,0.4-0.3,0.7-0.4c0.5-0.2,1.1-0.2,1.7,0l0,0c0,0,0,0,0,0c0.3,0.1,0.7,0.3,1.2,0.6l0.4,0.2
					l0.7-1.7l-0.3-0.2c-0.2-0.1-0.4-0.2-0.6-0.3c-0.8-0.4-1.6-0.5-2.4-0.5c-0.2,0-0.5,0-0.7,0.1c-0.3,0-0.6,0.1-0.8,0.2
					c-0.5,0.2-0.9,0.5-1.2,0.8c-0.3,0.3-0.6,0.7-0.8,1.2l0,0c0,0,0,0,0,0.1c-0.2,0.5-0.3,1-0.3,1.5c0,0.6,0.1,1.1,0.3,1.6
					c0.2,0.4,0.4,0.7,0.7,1l0,0c0,0,0,0,0,0c0.3,0.2,0.5,0.4,0.9,0.6c0.1,0,0.2,0.1,0.2,0.1c0.4,0.2,0.8,0.3,1.2,0.5
					c0.4,0.1,0.8,0.3,1.1,0.4l0.1,0c0.3,0.1,0.5,0.2,0.7,0.4l0,0c0,0,0.1,0,0.1,0.1c0.2,0.2,0.4,0.4,0.6,0.6
					c0.1,0.2,0.2,0.5,0.2,0.9c0,0.5-0.1,0.8-0.2,1.1c0,0,0,0.1-0.1,0.1c-0.1,0.2-0.3,0.4-0.5,0.6c-0.2,0.2-0.5,0.3-0.7,0.4l0,0
					c0,0,0,0,0,0c-0.6,0.2-1.2,0.2-1.8,0c-0.1,0-0.2-0.1-0.3-0.1c-0.3-0.1-0.7-0.4-1.2-0.7c-0.1,0-0.1-0.1-0.2-0.2l-0.4-0.3L17,31.6
					l0.3,0.2c0.3,0.2,0.7,0.5,1,0.6c0.8,0.4,1.6,0.6,2.3,0.6c0.6,0,1.1-0.1,1.7-0.2c0.1,0,0.1,0,0.2-0.1c0.5-0.2,0.9-0.4,1.2-0.7
					c0.4-0.4,0.7-0.8,1-1.3c0.1-0.2,0.2-0.4,0.2-0.7c0.1-0.4,0.1-0.8,0.1-1.2C25,28.4,25,28,24.9,27.7z"/>
			</g>
		</g>
		<g>
			<polygon class="st2" points="8.3,22.4 14.5,42.1 20.9,39.3 			"/>
			<polygon class="st3" points="35.5,33.9 22.3,39.7 21.9,39.9 21.5,40.1 16.5,42.3 23.1,42.3 23.7,42.2 24.2,42.2 36.3,42.2 			"/>
			<polygon class="st4" points="34.8,17.8 36.3,32.5 36.3,33 36.3,33.5 37,40.4 38.4,35.9 39.5,32.1 39.7,31.5 39.9,30.9 43.2,20.2
							"/>
			<polygon class="st5" points="34.9,13.6 33.9,12.9 33.4,12.5 25.6,6.5 21.7,13.1 33.8,16.5 34.3,16.7 34.7,16.8 41.5,18.7 			"/>
			<polygon class="st6" points="18,12.1 17.5,12.5 17.1,12.8 7.8,20 12.6,26.6 20.3,13.7 20.5,13.3 20.8,12.9 23.9,7.6 			"/>
		</g>
	</g>
</g>
</svg>
